<svg width="213" height="80" viewBox="0 0 213 80" fill="none" xmlns="http://www.w3.org/2000/svg">
<g clip-path="url(#clip0_6_45)">
<path d="M45.542 21.7844C45.5363 22.5181 45.2419 23.2202 44.722 23.7397C44.2022 24.2591 43.4985 24.5545 42.7624 24.5621H39.2659C39.2001 24.9677 39.2001 25.3813 39.2659 25.7869C39.3318 26.3629 39.5219 26.9461 39.5878 27.5221C39.7194 28.3022 39.8511 29.075 39.9755 29.8478C40.173 31.3934 40.4948 32.8807 40.7069 34.4263C40.9191 35.9719 40.963 37.3426 41.0288 38.8007C41.0946 40.2588 41.1531 41.8919 41.1531 43.3792C41.1531 44.152 41.219 44.8373 41.219 45.6393C41.219 46.2809 41.219 47.0537 41.1531 47.7025C41.1256 48.6527 40.9299 49.5906 40.5753 50.473C40.1563 51.6548 39.5186 52.7479 38.6954 53.6954C38.3854 54.0724 38.04 54.4191 37.664 54.7307C37.2288 55.1442 36.7361 55.4928 36.201 55.766C35.0219 56.3005 33.7438 56.5836 32.4485 56.5971C31.4489 56.7047 30.4379 56.618 29.4714 56.3419C28.8274 56.1561 28.2156 55.8734 27.6573 55.5035C27.1313 55.2185 26.6404 54.8735 26.1943 54.4755C25.5012 53.9469 24.9466 53.259 24.5778 52.4706L23.9926 51.5082C23.7945 51.0314 23.6211 50.5447 23.4732 50.0501C23.4147 49.6637 23.3489 49.2773 23.2831 48.8253C23.2172 48.3733 23.2172 47.9212 23.2172 47.4036C23.223 46.6868 23.5117 46.001 24.021 45.4948C24.5303 44.9886 25.2191 44.7026 25.9383 44.6988C26.3072 44.6886 26.6743 44.7517 27.0184 44.8843C27.3625 45.017 27.6767 45.2167 27.9426 45.4716C28.4107 46.011 28.6837 46.6913 28.718 47.4036C28.718 47.79 28.7838 48.1837 28.7838 48.5045C28.8496 48.6941 28.8496 48.8909 28.9155 49.0805C29.1043 49.4408 29.3195 49.7868 29.5592 50.1157C29.6908 50.247 29.7567 50.3709 29.881 50.4365C30.1743 50.6782 30.5023 50.8748 30.8539 51.0198C30.9976 51.086 31.1505 51.1303 31.3074 51.151C31.7946 51.1793 32.2831 51.1793 32.7704 51.151C33.0831 51.104 33.3881 51.0158 33.6774 50.8885C33.7432 50.8885 33.7432 50.8885 33.8091 50.8229C34.1223 50.5595 34.4068 50.2638 34.6576 49.9408C34.8964 49.591 35.1115 49.2256 35.3013 48.8472C35.4431 48.4911 35.5508 48.1225 35.6231 47.7463C35.689 46.7839 35.6231 45.8143 35.6231 44.83C35.6231 43.6052 35.6231 42.446 35.5646 41.2212C35.5646 40.6379 35.4988 39.9963 35.4988 39.4131C35.4988 38.8298 35.433 38.1883 35.433 37.6123C35.3671 36.577 35.3013 35.5418 35.1769 34.5138C35.0354 33.8952 34.9255 33.2698 34.8478 32.6401C34.7234 31.8017 34.5918 30.9633 34.4601 30.0592C34.3943 29.6072 34.3357 29.1625 34.2699 28.7105C34.1067 28.1377 33.9772 27.5559 33.8822 26.968C33.7403 26.2235 33.696 25.4638 33.7505 24.7079V24.1903L32.0023 24.5767C31.6541 24.67 31.2908 24.6941 30.9333 24.6475C30.5757 24.601 30.2309 24.4846 29.9184 24.3052C29.2874 23.9429 28.8267 23.3456 28.6375 22.6447C28.4484 21.9437 28.5463 21.1966 28.9098 20.5677C29.2734 19.9388 29.8727 19.4795 30.5759 19.291C31.3586 19.0941 32.134 18.9046 32.9752 18.7733C33.425 18.6971 33.8796 18.6533 34.3357 18.6421H34.8478L36.0767 18.839C36.34 18.839 36.596 18.9046 36.8593 18.9046C36.9491 18.9065 37.0377 18.8838 37.1154 18.839C37.5989 18.7579 38.088 18.714 38.5783 18.7077H39.4195C40.5463 18.7555 41.6696 18.865 42.7843 19.0358C43.5134 19.0434 44.2104 19.3354 44.7259 19.8492C45.2414 20.363 45.5344 21.0578 45.542 21.7844V21.7844Z" fill="#1D1D1B"/>
<path d="M67.7351 18.4963H67.8668C69.1517 18.5169 70.4311 18.6684 71.6851 18.9483C72.8556 19.223 74.0026 19.5886 75.1158 20.0419C75.7708 20.2808 76.4005 20.5837 76.9957 20.946C77.1859 21.0772 77.3834 21.1428 77.5736 21.2668L78.0929 21.5948C78.2246 21.6531 78.3489 21.7844 78.4806 21.85C78.7395 22.0249 78.9841 22.2199 79.2121 22.4332C79.8758 23.0058 80.4438 23.6801 80.8945 24.4309C81.5133 25.2718 82.0359 26.1791 82.4525 27.1357C82.7744 28.1054 83.0304 29.075 83.3596 30.0519C83.6501 30.9748 83.8438 31.9253 83.9374 32.888C83.9906 33.316 84.0126 33.7473 84.0033 34.1784C83.9941 34.868 83.9501 35.5566 83.8716 36.2417C83.8625 36.6526 83.821 37.0621 83.7473 37.4665C83.6575 38.4471 83.5061 39.4211 83.2938 40.3828C82.8824 42.4579 82.3425 44.5056 81.6772 46.5142C81.4797 47.0245 81.2822 47.6078 81.0262 48.1254C80.7701 48.643 80.5068 49.1534 80.185 49.671C79.8127 50.2934 79.379 50.8771 78.8902 51.4135C78.3124 51.9967 77.5955 52.5071 76.9518 53.0903C76.3716 53.6609 75.7171 54.1513 75.0061 54.5484C74.2746 54.9348 73.6455 55.2775 72.936 55.5837C72.4166 55.7805 71.9704 56.0357 71.473 56.167C70.0965 56.602 68.6455 56.7533 67.2085 56.6117C66.5725 56.5688 65.9426 56.4613 65.3286 56.2909C64.212 56.0308 63.1107 55.7095 62.0296 55.3285C61.5761 55.1973 61.1226 55.0004 60.6032 54.8109C60.413 54.6797 60.2155 54.614 60.0253 54.4901C59.3912 54.1838 58.8029 53.7912 58.2771 53.3236C57.4395 52.4888 56.703 51.5589 56.0826 50.5532C55.8851 50.3563 55.7608 50.1012 55.5633 49.9043C55.2414 49.4596 54.9854 48.942 54.7221 48.4899C54.4588 48.0379 54.4002 47.7171 54.2027 47.3307C54.0166 47.0019 53.8647 46.655 53.7492 46.2955C53.5013 45.7675 53.3502 45.1996 53.303 44.6186C53.2414 44.1282 53.1535 43.6415 53.0397 43.1605C52.908 42.3148 52.8495 41.418 52.7178 40.5796C52.6309 39.7222 52.6089 38.8594 52.652 37.9987C52.6279 37.3083 52.672 36.6173 52.7837 35.9355C52.8556 35.3084 53.0311 34.6974 53.303 34.1274C53.2605 33.8252 53.2804 33.5176 53.3615 33.2234C53.4195 32.9566 53.5079 32.6973 53.6249 32.4506C53.807 31.5741 54.0515 30.7116 54.3563 29.8697C54.6561 29.149 55.0235 28.4582 55.4536 27.8064C55.9071 27.0336 56.4264 26.1952 56.9165 25.4807C57.3832 24.8392 57.9018 24.2369 58.4673 23.68C59.1183 23.0311 59.8278 22.3895 60.5374 21.8063C61.2782 21.0596 62.1292 20.4302 63.061 19.9399C63.6981 19.5695 64.3723 19.2665 65.0726 19.0358C65.9185 18.6918 66.8216 18.5088 67.7351 18.4963V18.4963ZM67.4133 24.0445C66.8764 24.1782 66.3563 24.3714 65.8626 24.6204C65.055 25.1312 64.296 25.7144 63.595 26.3629C63.1414 26.7493 62.7538 27.1357 62.3661 27.5221C61.9126 28.0397 61.459 28.5574 61.0713 29.075L60.296 30.4311C59.956 30.969 59.653 31.5292 59.3889 32.1079C59.2573 32.4943 59.1988 32.8807 59.0671 33.2671C59.0386 33.3726 59.0166 33.4797 59.0013 33.5879C59.0671 33.9078 59.0671 34.2377 59.0013 34.5575C58.8903 34.9165 58.7381 35.2614 58.5477 35.5855C58.5477 35.6511 58.4819 35.7168 58.4819 35.7824C58.4819 35.848 58.4161 36.0375 58.3575 36.1688C58.2273 36.6206 58.1295 37.081 58.065 37.5467C58.054 38.0191 58.076 38.4917 58.1308 38.9611C58.1416 39.5439 58.1856 40.1257 58.2625 40.7035C58.3109 41.3109 58.3964 41.9147 58.5185 42.5116C58.5843 43.0293 58.6501 43.4813 58.716 43.9697C58.956 44.7135 59.28 45.4277 59.6815 46.0986C60.0331 46.7403 60.4472 47.3458 60.9177 47.9067C61.1737 48.3083 61.4521 48.6953 61.7516 49.0659L62.0808 49.394C62.8038 49.7815 63.5603 50.1035 64.3411 50.3563C64.8724 50.5407 65.4147 50.6916 65.965 50.8083C66.5814 50.972 67.2066 51.101 67.8375 51.1948C68.3153 51.186 68.7919 51.1446 69.2639 51.0708C69.8 50.9312 70.3197 50.7357 70.8147 50.4876C71.1365 50.3563 71.5462 50.1668 71.9192 49.9699C72.5619 49.5767 73.1667 49.1252 73.726 48.6212C73.9235 48.4243 74.1795 48.2275 74.4575 47.9723C74.7934 47.66 75.095 47.313 75.3572 46.937C75.9173 46 76.3735 45.0051 76.7177 43.9697C76.9152 43.2407 77.1713 42.5554 77.3029 41.8482C77.4931 40.9441 77.6906 40.0401 77.8808 39.1361C78.071 38.232 78.21 37.4592 78.2758 36.6208C78.4001 35.9719 78.4001 35.3304 78.466 34.7471C78.467 33.9269 78.4035 33.1078 78.2758 32.2974C78.0783 31.7215 77.8808 31.1383 77.6906 30.555C77.5134 29.9198 77.296 29.2964 77.0396 28.6886C76.6855 27.994 76.251 27.3431 75.7449 26.7493C75.5872 26.5846 75.4159 26.4334 75.2328 26.2973C75.2328 26.2973 75.167 26.2973 75.167 26.2389C74.9717 26.1692 74.7943 26.0571 74.6476 25.9109C74.3258 25.7213 74.0039 25.5245 73.6089 25.3349C73.0311 25.0725 72.38 24.8829 71.8022 24.6059C70.6554 24.3006 69.4863 24.0861 68.3057 23.9643C68.0062 23.9593 67.7071 23.9862 67.4133 24.0445V24.0445Z" fill="#1D1D1B"/>
<path d="M120.541 54.7453C120.337 55.4334 119.87 56.0144 119.241 56.3633C118.612 56.7123 117.87 56.8015 117.176 56.6117C116.013 56.3565 115.172 55.3285 114.462 54.4245C114.238 54.1487 113.994 53.8903 113.731 53.6517C113.475 53.3236 113.153 53.0028 112.897 52.6164C112.502 52.1644 112.114 51.7124 111.661 51.2604C111.207 50.8084 110.761 50.2324 110.307 49.7148C109.269 48.4899 108.04 47.4547 107.001 46.2955C105.962 45.1362 104.865 43.9114 103.834 42.7449C102.802 41.5784 101.639 40.5577 100.535 39.4569C100.009 38.966 99.5316 38.4265 99.1084 37.8456C99.0425 37.9112 99.0426 37.9769 98.9767 37.9769C98.7865 38.2976 98.589 38.7059 98.3989 39.0048C98.28 39.2412 98.1009 39.4424 97.8795 39.5881C97.9453 41.0462 97.8795 42.5554 97.8795 43.9625V49.0659C97.9453 50.524 97.8795 51.9822 98.077 53.3892C98.0997 53.7502 98.0412 54.1116 97.9058 54.4471C97.7704 54.7827 97.5615 55.0838 97.2943 55.3286C96.7819 55.8482 96.0867 56.1489 95.3559 56.167C94.9918 56.1709 94.631 56.0983 94.297 55.9538C93.963 55.8093 93.6633 55.5963 93.4175 55.3286C93.0419 55.0113 92.7842 54.5773 92.686 54.0964C92.6201 53.9069 92.6201 53.6517 92.5543 53.3674C92.3641 52.0113 92.43 50.6625 92.3641 49.3065C92.2983 47.7536 92.3641 46.1424 92.3641 44.5968C92.3641 41.3743 92.43 38.0352 92.1081 34.7909C91.9554 33.9825 91.8673 33.1634 91.8448 32.3412C91.7789 31.4372 91.779 30.5331 91.7204 29.6947C91.6619 28.8563 91.7204 27.9523 91.6546 27.1138C91.5888 26.2754 91.5229 25.5682 91.4571 24.7954C91.3913 24.0226 91.2669 23.3373 91.2011 22.7322C91.0919 22.0501 91.0478 21.3593 91.0694 20.6689C91.0655 20.3117 91.1332 19.9573 91.2686 19.6264C91.4039 19.2956 91.6042 18.9951 91.8577 18.7425C92.1111 18.4899 92.4127 18.2902 92.7446 18.1553C93.0765 18.0204 93.4321 17.9529 93.7905 17.9568C94.5132 17.952 95.209 18.2294 95.7289 18.7296C96.2427 19.2485 96.5428 19.9404 96.5702 20.6689C96.5702 21.5073 96.636 22.2801 96.7018 23.053C96.9702 24.7845 97.1411 26.5297 97.2138 28.2803C97.2138 29.1844 97.2797 30.0811 97.2797 31.0508C97.2696 31.2956 97.2917 31.5407 97.3455 31.7798C98.077 30.9414 98.7719 30.1686 99.4814 29.3958C99.9234 28.8897 100.4 28.4146 100.908 27.9741C101.427 27.5221 101.939 27.1357 102.371 26.6837C102.802 26.2317 103.344 25.7869 103.834 25.3349C104.324 24.8829 104.799 24.5621 105.297 24.1684C106.335 23.2717 107.301 22.302 108.34 21.4636C108.859 20.946 109.437 20.4283 109.956 19.918C110.262 19.6179 110.587 19.3379 110.929 19.0796C111.614 18.5354 112.379 18.1001 113.197 17.7891C113.406 17.7315 113.624 17.7093 113.84 17.7235C114.344 17.7106 114.839 17.8449 115.267 18.1099C115.896 18.4546 116.361 19.0342 116.562 19.7211C116.732 20.4393 116.639 21.1946 116.298 21.85C116.056 22.2659 115.697 22.6027 115.267 22.8196C115.201 22.8853 115.135 22.8853 115.069 22.9436C114.842 23.0265 114.626 23.1367 114.426 23.2717C113.972 23.6581 113.519 24.1101 113.065 24.5621C112.612 25.0141 112.026 25.5245 111.448 26.0202C110.415 26.9972 109.334 27.9218 108.208 28.7907C107.367 29.5197 106.591 30.2488 105.816 30.9195C105.363 31.3059 104.909 31.6486 104.521 32.0204C104.079 32.3952 103.669 32.8048 103.292 33.2452C103.136 33.454 102.963 33.6491 102.773 33.8285C103.036 34.0837 103.292 34.4044 103.548 34.6669C104.017 35.2709 104.538 35.8321 105.107 36.3438C105.619 36.8541 106.204 37.3061 106.723 37.8019C107.242 38.2977 107.755 38.9611 108.274 39.4787C109.313 40.7035 110.344 41.8628 111.383 43.0293C111.961 43.6052 112.612 44.1885 113.197 44.7717C113.643 45.2164 114.096 45.7997 114.55 46.3173C115.003 46.835 115.457 47.3453 115.911 47.7755C116.364 48.2056 116.818 48.8107 117.271 49.3284C117.461 49.5835 117.725 49.8387 117.915 50.1012C118.194 50.3867 118.455 50.6885 118.697 51.0052C118.83 51.1891 118.979 51.36 119.144 51.5155C119.715 51.8105 120.166 52.2933 120.42 52.882C120.675 53.4706 120.718 54.1289 120.541 54.7453V54.7453Z" fill="#1D1D1B"/>
<path d="M154.13 53.4549C154.137 54.1754 153.858 54.8695 153.355 55.3869C153.01 55.7285 152.585 55.9791 152.119 56.1159C151.863 56.1815 151.673 56.1816 151.387 56.2399C149.498 56.4666 147.599 56.5955 145.696 56.6263C143.882 56.6919 142.039 56.6919 140.32 56.6919H133.737C133.387 56.6829 133.04 56.6414 132.698 56.5679C132.299 56.4755 131.91 56.3461 131.535 56.1815C131.261 55.9848 131.001 55.7679 130.76 55.5327C130.615 55.3723 130.485 55.199 130.372 55.015C130.276 54.8564 130.169 54.7053 130.05 54.563C129.516 53.2742 129.23 51.8965 129.209 50.5021C129.143 49.5981 129.143 48.6941 129.077 47.8557C129.077 46.8803 129.011 45.906 128.88 44.9394C128.753 43.1411 128.689 41.3354 128.689 39.5225C128.624 37.7144 128.624 35.9136 128.624 34.1055C128.624 32.4943 128.689 30.8175 128.558 29.2062C128.492 28.6886 128.368 28.2366 128.302 27.7481C128.246 27.1195 128.158 26.4941 128.038 25.8744C127.889 24.8944 127.803 23.9056 127.782 22.9144C127.782 22.7176 127.717 22.5207 127.717 22.3968C127.782 21.9448 127.848 21.5584 127.914 21.172C128.066 20.6333 128.356 20.1434 128.755 19.7503C129.857 18.8177 131.253 18.3015 132.698 18.2922C134.512 18.0953 136.355 18.0297 138.199 17.9641H149.5C150.214 18.0006 150.886 18.3088 151.378 18.825C151.87 19.3412 152.144 20.0261 152.144 20.7382C152.144 21.4503 151.87 22.1351 151.378 22.6514C150.886 23.1676 150.214 23.4758 149.5 23.5123H140.722C138.241 23.4467 135.758 23.5124 133.283 23.7091C133.359 24.0912 133.403 24.4789 133.415 24.8683V24.8027C133.481 25.2547 133.539 25.7723 133.605 26.2608C133.842 27.4661 134.015 28.6829 134.124 29.9061C134.19 30.8102 134.124 31.7142 134.124 32.5526V36.7447C134.651 36.5529 135.191 36.4018 135.741 36.2927C136.582 36.1615 137.489 36.0303 138.33 35.9646C139.559 35.8407 140.854 35.7751 142.083 35.7751H142.215C142.946 35.7918 143.644 36.089 144.161 36.605C144.679 37.121 144.977 37.816 144.994 38.5455C144.977 39.2695 144.677 39.9582 144.158 40.4649C143.638 40.9715 142.941 41.2559 142.215 41.2576C140.723 41.2479 139.233 41.3332 137.752 41.5128C136.823 41.663 135.911 41.9073 135.031 42.2419L134.256 42.6283C134.322 43.7875 134.446 45.0123 134.512 46.2736C134.578 47.1776 134.644 48.1473 134.644 49.0513C134.644 49.7804 134.71 50.4657 134.775 51.2385H142.185C143.648 51.1802 145.111 51.2385 146.574 51.1802C148.191 51.1146 149.807 50.9177 151.424 50.7281C152.158 50.7428 152.856 51.0439 153.37 51.5666C153.857 52.0754 154.129 52.7515 154.13 53.4549V53.4549Z" fill="#1D1D1B"/>
<path d="M173.025 17.6579C173.346 17.6579 173.668 17.7235 173.997 17.7235C175.68 18.1099 178.847 19.1816 180.208 20.2388C180.727 20.6252 181.181 21.0116 181.634 21.398C182.366 22.0396 182.987 22.754 183.704 23.4612C184.227 23.9534 184.55 24.6205 184.611 25.3349C184.662 26.0597 184.428 26.7757 183.96 27.3325C183.468 27.8625 182.806 28.2053 182.088 28.3022C181.72 28.3217 181.353 28.2672 181.007 28.1419C180.662 28.0166 180.345 27.8232 180.076 27.5731C178.006 25.5099 174.451 21.6386 171.408 24.0299C171.012 24.3692 170.663 24.7589 170.369 25.1891C170.225 25.4143 170.117 25.6602 170.047 25.9182C169.932 26.2329 169.847 26.5575 169.791 26.8878C169.857 27.2086 169.857 27.5294 169.916 27.8575C170.031 28.3397 170.182 28.8126 170.369 29.2719C170.567 29.6583 170.757 30.0009 170.954 30.3727C171.239 30.8843 171.564 31.3719 171.927 31.8309C172.439 32.4141 173.025 32.9317 173.61 33.5077C173.997 33.9597 174.451 34.4118 174.839 34.8638C175.804 35.9574 176.711 37.0509 177.618 38.1518L178.459 38.9903C179.092 39.6581 179.676 40.3694 180.208 41.1191C180.46 41.4641 180.678 41.8328 180.859 42.22C181.115 42.7304 181.437 43.3136 181.693 43.8968C181.958 44.5854 182.154 45.2986 182.278 46.0257C182.409 46.881 182.409 47.7513 182.278 48.6066C182.137 49.8457 181.765 51.0475 181.181 52.1498C180.474 53.3224 179.577 54.3696 178.525 55.2483C177.343 56.1223 175.922 56.6157 174.451 56.6627C173.362 56.6894 172.273 56.5817 171.21 56.3419C170.119 56.149 169.055 55.8234 168.043 55.3723C166.845 54.8897 165.746 54.1902 164.803 53.309C164.291 52.7987 163.903 52.3467 163.449 51.8509C162.944 51.2353 162.51 50.5652 162.155 49.8533C161.971 49.4351 161.82 49.0037 161.701 48.5628C161.531 47.9953 161.423 47.4111 161.379 46.8204C161.314 46.434 161.314 46.0913 161.248 45.7195C161.22 44.9642 161.482 44.2268 161.979 43.6563C162.447 43.1368 163.095 42.8137 163.793 42.7522C164.541 42.7012 165.28 42.9329 165.863 43.4011C166.402 43.8789 166.728 44.5502 166.77 45.2675C166.825 45.5238 166.847 45.7858 166.836 46.0476C166.895 46.3028 166.895 46.5579 166.961 46.8204C167.031 47.1344 167.142 47.4382 167.29 47.7244C167.489 48.108 167.751 48.4555 168.065 48.7524C168.332 49.0874 168.636 49.3907 168.972 49.6564C169.651 50.0653 170.366 50.4118 171.108 50.6917C172.022 50.9257 172.95 51.0963 173.888 51.2021C174.147 51.2117 174.408 51.1921 174.663 51.1437C174.801 51.131 174.934 51.0861 175.051 51.0125C175.117 50.9469 175.248 50.8813 175.314 50.8157C175.611 50.5095 175.892 50.1883 176.155 49.8533C176.353 49.4993 176.524 49.1314 176.667 48.7524C176.797 48.3569 176.864 47.9436 176.865 47.5276C176.876 47.2682 176.854 47.0086 176.799 46.7548C176.482 45.4653 175.86 44.2703 174.985 43.2699C174.253 42.4971 173.566 41.8117 172.915 41.0171C172.403 40.4338 171.883 39.7849 171.452 39.209C170.986 38.7669 170.554 38.2917 170.157 37.7873C169.506 37.1457 168.862 36.5625 168.211 35.8553C167.731 35.3592 167.297 34.8198 166.917 34.2441C166.792 34.0472 166.726 33.8577 166.595 33.6608C166.339 33.2744 166.141 32.888 165.863 32.436C165.438 31.7764 165.111 31.0595 164.89 30.3071C164.7 29.6583 164.569 29.0167 164.437 28.3751C164.269 27.347 164.291 26.2967 164.503 25.2766C164.569 25.0798 164.634 24.8246 164.7 24.5475C164.857 23.987 165.073 23.4446 165.344 22.929C165.859 21.9763 166.515 21.1063 167.29 20.3481C167.97 19.6807 168.729 19.098 169.55 18.613C170.609 18.0084 171.804 17.6799 173.025 17.6579V17.6579Z" fill="#1D1D1B"/>
<path d="M14.8198 11.3005C11.9827 6.97345 8.35199 3.21875 4.11824 0.233296C3.91076 0.112599 3.68147 0.0338261 3.44345 0.00148126C3.20542 -0.0308635 2.96332 -0.0161559 2.73101 0.0447782C2.49869 0.105712 2.28069 0.211682 2.08948 0.356612C1.89826 0.501542 1.73756 0.682599 1.61657 0.889447C1.38342 1.30966 1.32174 1.80327 1.44435 2.26765C1.56696 2.73203 1.86442 3.13144 2.2749 3.38284L3.00638 3.90048L3.36481 4.16294L3.48185 4.25771C3.95 4.62953 4.40351 4.98678 4.85703 5.38776C5.74944 6.16057 6.61259 6.97712 7.43185 7.82284C8.2511 8.66855 8.99722 9.52155 9.72139 10.4183L9.99934 10.7682C9.81647 10.5422 10.0579 10.8484 10.0871 10.8922C10.27 11.1255 10.4455 11.3661 10.6211 11.6212C10.982 12.1073 11.3331 12.6176 11.6744 13.1523C11.7955 13.3591 11.9562 13.5401 12.1474 13.685C12.3386 13.8299 12.5566 13.9358 12.7889 13.9967C13.0212 14.0577 13.2633 14.0724 13.5013 14.0401C13.7393 14.0078 13.9686 13.9291 14.1761 13.8084C14.3836 13.6878 14.5652 13.5276 14.7106 13.337C14.856 13.1464 14.9623 12.9291 15.0234 12.6976C15.0845 12.4661 15.0993 12.2248 15.0669 11.9876C15.0345 11.7504 14.9555 11.5218 14.8344 11.315L14.8198 11.3005Z" fill="#1D1D1B"/>
<path d="M14.1761 66.9716C10.3638 70.9643 5.85854 74.237 0.877789 76.6317C0.461603 76.878 0.159273 77.2775 0.036099 77.744C-0.0870746 78.2105 -0.0212154 78.7066 0.219449 79.1251C0.471597 79.5344 0.872884 79.8305 1.33923 79.9515C1.80557 80.0725 2.30078 80.0089 2.72111 79.774C7.97685 77.239 12.7317 73.7815 16.7582 69.5671C18.3894 67.8684 15.8073 65.2875 14.1761 66.9862V66.9716Z" fill="#1D1D1B"/>
<path d="M195.657 9.91525L200.777 4.81182C200.962 4.64658 201.112 4.44536 201.217 4.22048C201.322 3.9956 201.379 3.75177 201.386 3.50393C201.393 3.25609 201.349 3.00943 201.257 2.77906C201.165 2.54869 201.027 2.33945 200.851 2.16413C200.675 1.98881 200.465 1.8511 200.234 1.75943C200.003 1.66776 199.756 1.62406 199.507 1.63099C199.258 1.63793 199.014 1.69537 198.788 1.79978C198.562 1.90418 198.361 2.05338 198.195 2.23823L193.074 7.34167C192.763 7.68891 192.597 8.14179 192.61 8.60736C192.623 9.07293 192.814 9.51586 193.145 9.84519C193.475 10.1745 193.92 10.3653 194.387 10.3783C194.854 10.3913 195.308 10.2257 195.657 9.91525V9.91525Z" fill="#1D1D1B"/>
<path d="M198.729 62.59L209.884 71.6595C210.232 71.9898 210.694 72.1741 211.175 72.1741C211.656 72.1741 212.118 71.9898 212.466 71.6595C212.805 71.3148 212.994 70.8515 212.994 70.3691C212.994 69.8866 212.805 69.4234 212.466 69.0787L201.311 60.0164C200.962 59.706 200.508 59.5403 200.041 59.5533C199.574 59.5664 199.129 59.7571 198.799 60.0865C198.469 60.4158 198.277 60.8587 198.264 61.3243C198.251 61.7899 198.417 62.2428 198.729 62.59Z" fill="#1D1D1B"/>
</g>
<defs>
<clipPath id="clip0_6_45">
<rect width="213" height="80" fill="white"/>
</clipPath>
</defs>
</svg>
