<svg width="630" height="716" viewBox="0 0 630 716" fill="none" xmlns="http://www.w3.org/2000/svg">
<path d="M33.6071 6.3308C33.4045 7.97003 34.6957 10.0027 29.9868 10.2322C28.5776 10.3722 27.1365 10.2051 25.89 9.75704C24.6435 9.30898 23.6624 8.60541 23.1007 7.75693C20.0881 4.47846 16.3159 4.60959 12.8222 7.59299C10.1134 9.9207 8.03743 12.5107 10.0121 15.3466C11.9868 18.1824 11.0248 20.7396 10.7969 23.5427C9.55642 37.4926 7.60705 51.4097 7.40452 65.4251C7.05009 94.6526 7.8349 123.896 7.75895 153.124C7.55642 247.495 9.48047 341.947 4.77161 436.367C4.06275 450.35 3.96148 464.332 3.12603 478.315C1.32857 508.542 1.96148 538.77 3.12603 568.981C4.26528 596.471 4.79692 623.928 3.12603 651.401C2.03743 668.876 0.59439 686.333 0.0121119 703.857C-0.291686 713.168 5.07541 715.856 21.1007 716.036C46.8476 716.315 72.4678 714.872 98.1134 714.102C120.696 713.413 142.772 709.905 165.683 710.364C190.493 710.856 215.379 711.528 240.164 711.446C295.556 711.282 350.797 713.741 402.189 713.463C433.734 713.627 461.151 713.217 488.594 712.348C517.734 711.446 546.822 710.955 576.113 710.348C583.056 710.171 589.94 709.455 596.62 708.217C598.594 707.873 601.683 707.561 599.683 705.184C596.367 701.365 599.278 700.185 606.417 699.841C618.594 699.267 619.227 698.513 619.632 691.481C619.81 688.202 619.987 684.924 619.961 681.743C619.675 632.293 619.354 582.832 618.999 533.36C618.999 528.869 618.738 524.377 618.215 519.886C615.891 498.698 615.248 477.448 616.291 456.218C617.404 433.498 620.721 410.828 621.354 388.108C622.442 343.406 620.67 298.671 624.215 253.986C624.797 246.511 623.075 239.036 623.708 231.512C625.886 206.579 627.961 181.647 628.215 156.665C628.468 129.929 627.81 103.193 626.898 76.4735C626.189 55.475 629.43 34.5748 630.139 13.6254C630.392 5.93741 628.417 4.74077 614.949 3.79001C612.339 3.64212 609.719 3.59287 607.101 3.64249L391.455 5.54395C384.924 5.54395 378.367 5.72427 371.86 5.54395C317.413 4.62598 262.974 3.66976 208.544 2.6753C192.417 2.39663 176.24 2.57699 160.164 1.95408C121.886 0.445988 83.5058 0.904951 45.1767 0.036158C34.5438 -0.16055 34.2906 0.249252 33.6071 6.3308ZM590.139 704.185C548.113 704.463 506.898 706.152 465.658 706.938C417.329 707.856 368.974 708.151 320.62 706.299C302.898 705.627 284.898 706.053 267.025 705.889C234.341 705.561 201.683 705.152 168.999 704.824C152.462 704.793 135.943 705.56 119.582 707.119C88.505 709.578 57.2183 710.755 25.9108 710.643C13.0754 710.643 7.58174 707.873 7.63237 700.431C7.63237 692.464 8.89819 684.481 9.65768 676.514C13.4045 638.074 12.1893 599.618 12.0374 561.145C11.8602 523.443 12.0374 485.741 14.0121 448.038C15.9868 410.336 17.3792 372.125 17.7843 334.177C18.3919 274.476 17.9868 214.775 17.7843 155.075C17.7843 125.11 16.9995 95.128 17.4298 65.1628C17.6577 49.4426 19.7336 33.7388 20.8982 18.0349C21.0754 15.3794 22.3412 14.3138 27.7336 14.0516C45.2273 13.2156 62.5185 14.7073 79.8602 15.1335C110.772 15.9039 141.734 16.4776 172.468 18.1988C242.924 22.1494 313.506 21.1987 384.063 21.0019C414.442 20.92 444.822 19.3627 475.329 18.0185C492.645 17.2153 510.139 17.3956 527.582 17.4284C545.025 17.4612 562.417 17.871 579.835 18.1496C582.848 18.1496 585.86 18.5103 588.873 18.6742C593.531 18.9365 595.961 20.3135 595.734 23.051C595.734 23.5428 595.885 24.0509 595.734 24.5427C594.493 42.5742 598.848 60.4582 598.265 78.457C597.303 114.914 600.392 151.37 598.265 187.827C597.126 208.546 594.189 229.234 595.987 249.986C599.227 286.951 596.924 323.932 594.037 360.831C590.898 401.009 589.885 441.153 587.582 481.38C586.518 499.838 583.911 518.279 585.455 536.77C586.696 551.982 587.05 567.21 591.303 582.308C592.207 586.262 592.554 590.262 592.341 594.258C592.341 619.748 592.189 645.221 591.759 670.695C591.911 681.596 590.822 692.644 590.139 704.185ZM95.9108 4.01948C144.164 5.00302 193.43 5.34726 242.518 7.29794C284.721 8.93717 326.949 9.39616 369.101 10.1666C383.458 10.4826 397.831 10.2253 412.139 9.39616C416.919 9.10932 421.724 9.04359 426.518 9.19946C481.43 10.8387 536.265 8.10119 591.075 8.39625C596.746 8.39625 602.417 8.39626 608.063 8.51101C614.189 8.51101 617.961 10.1502 618.189 13.8877C618.974 25.8541 620.037 37.7713 617.683 49.7869C615.329 61.8024 616.721 73.736 617.278 85.7188C618.442 109.947 618.848 134.169 618.493 158.386C617.936 197.842 613.708 237.217 613.43 276.706C613.075 327.637 614.67 378.633 610.139 429.531C607.405 458.459 607.075 487.46 609.151 516.411C610.696 536.639 610.24 556.867 610.898 577.062C612.113 613.24 613.43 649.418 613.43 685.612C613.43 687.104 613.43 688.612 613.43 690.104C613.253 692.726 614.772 695.874 606.746 695.546C599.455 695.251 598.316 694.857 598.999 689.825C602.873 660.138 601.885 630.419 602.518 600.7C602.822 586.143 598.772 571.833 597.455 557.375C594.923 529.869 597.455 502.461 599.582 475.02C600.898 458.546 600.62 442.039 600.797 425.564C600.999 402.828 603.86 380.141 604.923 357.438C606.341 327.227 609.506 297.016 607.455 266.788C606.041 244.07 606.463 221.319 608.721 198.629C612.215 162.664 608.923 126.7 609.354 90.7512C609.582 69.4412 606.139 48.3443 606.316 27.1162C606.372 25.1074 606.084 23.1006 605.455 21.1331C604.695 18.7815 602.69 16.6758 599.788 15.1793C596.885 13.6829 593.266 12.8898 589.556 12.9369C567.278 13.4615 545.126 12.2812 522.949 11.8222C484.493 11.0354 446.392 14.1991 408.113 15.2318C368.442 16.2973 328.822 15.74 289.126 15.9695C220.645 16.3793 152.594 10.9206 84.0627 11.1829C72.7716 11.1829 61.4551 10.5764 50.1387 10.3633C45.7843 10.2649 42.24 9.9699 42.5438 6.74061C42.8476 3.51132 46.7969 4.0523 50.1387 4.0523C65.3792 3.98673 80.2146 4.01948 95.9108 4.01948Z" fill="black"/>
</svg>
